<svg width="17" height="17" viewBox="0 0 17 17" fill="none" xmlns="http://www.w3.org/2000/svg">
<path fill-rule="evenodd" clip-rule="evenodd" d="M13.1107 13.1748C11.0733 15.2125 8.05631 15.6527 5.58741 14.5109C5.22294 14.3642 4.92412 14.2456 4.64005 14.2456C3.84879 14.2503 2.86391 15.0175 2.35204 14.5062C1.84017 13.9943 2.60797 13.0087 2.60797 12.2126C2.60797 11.9285 2.49407 11.635 2.34735 11.2698C1.20502 8.80134 1.64587 5.78338 3.6833 3.74639C6.2842 1.14454 10.5098 1.14454 13.1107 3.74572C15.7163 6.35159 15.7116 10.5737 13.1107 13.1748Z" stroke="#94A3B8" stroke-width="1.5" stroke-linecap="round" stroke-linejoin="round"/>
<path d="M11.0227 8.73696H11.0287" stroke="#94A3B8" stroke-width="2" stroke-linecap="round" stroke-linejoin="round"/>
<path d="M8.35005 8.73696H8.35605" stroke="#94A3B8" stroke-width="2" stroke-linecap="round" stroke-linejoin="round"/>
<path d="M5.67738 8.73696H5.68338" stroke="#94A3B8" stroke-width="2" stroke-linecap="round" stroke-linejoin="round"/>
</svg>
